<svg xmlns="http://www.w3.org/2000/svg" viewBox="0 0 580 400" width="580" height="400">
    <defs>
      <linearGradient id="bg" x1="0%" y1="0%" x2="100%" y2="100%">
        <stop offset="0%" style="stop-color:#0a1628"/>
        <stop offset="100%" style="stop-color:#0d1f3c"/>
      </linearGradient>
      <linearGradient id="accent" x1="0%" y1="0%" x2="100%" y2="0%">
        <stop offset="0%" style="stop-color:#059669"/>
        <stop offset="100%" style="stop-color:#34d399"/>
      </linearGradient>
    </defs>
    <rect width="580" height="400" fill="url(#bg)"/>
    <circle cx="0" cy="0" r="120" fill="#059669" opacity="0.08"/><circle cx="580" cy="400" r="140" fill="#34d399" opacity="0.06"/><circle cx="148" cy="68" r="1" fill="#f0f9ff" opacity="0.43"/><circle cx="286" cy="126" r="2" fill="#f0f9ff" opacity="0.15"/><circle cx="424" cy="184" r="3" fill="#f0f9ff" opacity="0.22"/><circle cx="562" cy="242" r="1" fill="#f0f9ff" opacity="0.29"/><circle cx="120" cy="300" r="2" fill="#f0f9ff" opacity="0.36"/><circle cx="258" cy="358" r="3" fill="#f0f9ff" opacity="0.43"/><circle cx="396" cy="36" r="1" fill="#f0f9ff" opacity="0.15"/><circle cx="534" cy="94" r="2" fill="#f0f9ff" opacity="0.22"/><circle cx="92" cy="152" r="3" fill="#f0f9ff" opacity="0.29"/><circle cx="230" cy="210" r="1" fill="#f0f9ff" opacity="0.36"/><circle cx="368" cy="268" r="2" fill="#f0f9ff" opacity="0.43"/><circle cx="506" cy="326" r="3" fill="#f0f9ff" opacity="0.15"/><circle cx="64" cy="384" r="1" fill="#f0f9ff" opacity="0.22"/><circle cx="202" cy="62" r="2" fill="#f0f9ff" opacity="0.29"/><circle cx="340" cy="120" r="3" fill="#f0f9ff" opacity="0.36"/><circle cx="478" cy="178" r="1" fill="#f0f9ff" opacity="0.43"/><circle cx="36" cy="236" r="2" fill="#f0f9ff" opacity="0.15"/><circle cx="174" cy="294" r="3" fill="#f0f9ff" opacity="0.22"/><circle cx="312" cy="352" r="1" fill="#f0f9ff" opacity="0.29"/><circle cx="450" cy="30" r="2" fill="#f0f9ff" opacity="0.36"/>
    <rect x="0" y="0" width="580" height="4" fill="#059669" opacity="0.7"/>
    <rect x="160" y="290" width="50" height="40" rx="3" fill="#22d3ee" opacity="0.4"/>
  <rect x="225" y="255" width="50" height="75" rx="3" fill="#22d3ee" opacity="0.6"/>
  <rect x="290" y="210" width="50" height="120" rx="3" fill="#0891b2" opacity="0.7"/>
  <rect x="355" y="165" width="50" height="165" rx="3" fill="#22d3ee" opacity="0.9"/>
  <text x="165" y="288" font-size="11" fill="#f0f9ff" opacity="0.8">A1</text>
  <text x="230" y="253" font-size="11" fill="#f0f9ff" opacity="0.8">B1</text>
  <text x="295" y="208" font-size="11" fill="#f0f9ff" opacity="0.8">B2</text>
  <text x="360" y="163" font-size="11" fill="#f0f9ff" opacity="0.8">C1</text>
    <rect x="0" y="360" width="580" height="40" fill="url(#accent)" opacity="0.15"/>
  </svg>