<svg xmlns="http://www.w3.org/2000/svg" viewBox="0 0 580 400" width="580" height="400">
    <defs>
      <linearGradient id="bg" x1="0%" y1="0%" x2="100%" y2="100%">
        <stop offset="0%" style="stop-color:#0a1628"/>
        <stop offset="100%" style="stop-color:#0d1f3c"/>
      </linearGradient>
      <linearGradient id="accent" x1="0%" y1="0%" x2="100%" y2="0%">
        <stop offset="0%" style="stop-color:#0891b2"/>
        <stop offset="100%" style="stop-color:#22d3ee"/>
      </linearGradient>
    </defs>
    <rect width="580" height="400" fill="url(#bg)"/>
    <circle cx="0" cy="0" r="120" fill="#0891b2" opacity="0.08"/><circle cx="580" cy="400" r="140" fill="#22d3ee" opacity="0.06"/><circle cx="211" cy="191" r="2" fill="#f0f9ff" opacity="0.36"/><circle cx="412" cy="372" r="3" fill="#f0f9ff" opacity="0.43"/><circle cx="33" cy="173" r="1" fill="#f0f9ff" opacity="0.15"/><circle cx="234" cy="354" r="2" fill="#f0f9ff" opacity="0.22"/><circle cx="435" cy="155" r="3" fill="#f0f9ff" opacity="0.29"/><circle cx="56" cy="336" r="1" fill="#f0f9ff" opacity="0.36"/><circle cx="257" cy="137" r="2" fill="#f0f9ff" opacity="0.43"/><circle cx="458" cy="318" r="3" fill="#f0f9ff" opacity="0.15"/><circle cx="79" cy="119" r="1" fill="#f0f9ff" opacity="0.22"/><circle cx="280" cy="300" r="2" fill="#f0f9ff" opacity="0.29"/><circle cx="481" cy="101" r="3" fill="#f0f9ff" opacity="0.36"/><circle cx="102" cy="282" r="1" fill="#f0f9ff" opacity="0.43"/><circle cx="303" cy="83" r="2" fill="#f0f9ff" opacity="0.15"/><circle cx="504" cy="264" r="3" fill="#f0f9ff" opacity="0.22"/><circle cx="125" cy="65" r="1" fill="#f0f9ff" opacity="0.29"/><circle cx="326" cy="246" r="2" fill="#f0f9ff" opacity="0.36"/><circle cx="527" cy="47" r="3" fill="#f0f9ff" opacity="0.43"/><circle cx="148" cy="228" r="1" fill="#f0f9ff" opacity="0.15"/><circle cx="349" cy="29" r="2" fill="#f0f9ff" opacity="0.22"/><circle cx="550" cy="210" r="3" fill="#f0f9ff" opacity="0.29"/>
    <rect x="0" y="0" width="580" height="4" fill="#0891b2" opacity="0.7"/>
    <circle cx="290" cy="200" r="70" fill="none" stroke="#f59e0b" stroke-width="4"/>
  <circle cx="290" cy="200" r="50" fill="#f59e0b" opacity="0.15"/>
  <rect x="265" y="265" width="50" height="12" rx="3" fill="#f59e0b" opacity="0.7"/>
  <rect x="270" y="282" width="40" height="12" rx="3" fill="#f59e0b" opacity="0.5"/>
  <line x1="290" y1="130" x2="290" y2="110" stroke="#f59e0b" stroke-width="3"/>
  <line x1="340" y1="155" x2="355" y2="140" stroke="#f59e0b" stroke-width="3"/>
  <line x1="240" y1="155" x2="225" y2="140" stroke="#f59e0b" stroke-width="3"/>
    <rect x="0" y="360" width="580" height="40" fill="url(#accent)" opacity="0.15"/>
  </svg>