<svg xmlns="http://www.w3.org/2000/svg" viewBox="0 0 580 400" width="580" height="400">
    <defs>
      <linearGradient id="bg" x1="0%" y1="0%" x2="100%" y2="100%">
        <stop offset="0%" style="stop-color:#0a1628"/>
        <stop offset="100%" style="stop-color:#0d1f3c"/>
      </linearGradient>
      <linearGradient id="accent" x1="0%" y1="0%" x2="100%" y2="0%">
        <stop offset="0%" style="stop-color:#7c3aed"/>
        <stop offset="100%" style="stop-color:#a78bfa"/>
      </linearGradient>
    </defs>
    <rect width="580" height="400" fill="url(#bg)"/>
    <circle cx="0" cy="0" r="120" fill="#7c3aed" opacity="0.08"/><circle cx="580" cy="400" r="140" fill="#a78bfa" opacity="0.06"/><circle cx="30" cy="90" r="1" fill="#f0f9ff" opacity="0.15"/><circle cx="50" cy="170" r="2" fill="#f0f9ff" opacity="0.22"/><circle cx="70" cy="250" r="3" fill="#f0f9ff" opacity="0.29"/><circle cx="90" cy="330" r="1" fill="#f0f9ff" opacity="0.36"/><circle cx="110" cy="30" r="2" fill="#f0f9ff" opacity="0.43"/><circle cx="130" cy="110" r="3" fill="#f0f9ff" opacity="0.15"/><circle cx="150" cy="190" r="1" fill="#f0f9ff" opacity="0.22"/><circle cx="170" cy="270" r="2" fill="#f0f9ff" opacity="0.29"/><circle cx="190" cy="350" r="3" fill="#f0f9ff" opacity="0.36"/><circle cx="210" cy="50" r="1" fill="#f0f9ff" opacity="0.43"/><circle cx="230" cy="130" r="2" fill="#f0f9ff" opacity="0.15"/><circle cx="250" cy="210" r="3" fill="#f0f9ff" opacity="0.22"/><circle cx="270" cy="290" r="1" fill="#f0f9ff" opacity="0.29"/><circle cx="290" cy="370" r="2" fill="#f0f9ff" opacity="0.36"/><circle cx="310" cy="70" r="3" fill="#f0f9ff" opacity="0.43"/><circle cx="330" cy="150" r="1" fill="#f0f9ff" opacity="0.15"/><circle cx="350" cy="230" r="2" fill="#f0f9ff" opacity="0.22"/><circle cx="370" cy="310" r="3" fill="#f0f9ff" opacity="0.29"/><circle cx="390" cy="10" r="1" fill="#f0f9ff" opacity="0.36"/><circle cx="410" cy="90" r="2" fill="#f0f9ff" opacity="0.43"/>
    <rect x="0" y="0" width="580" height="4" fill="#7c3aed" opacity="0.7"/>
    <path d="M180 160 Q180 130 210 130 L370 130 Q400 130 400 160 L400 250 Q400 280 370 280 L240 280 L200 320 L210 280 Q180 280 180 250 Z" fill="none" stroke="#22d3ee" stroke-width="3"/>
  <path d="M270 165 L250 225 L280 220 L260 285" fill="none" stroke="#f59e0b" stroke-width="4"/>
  <path d="M270 165 L250 225 L280 220 L260 285" fill="#f59e0b" opacity="0.2"/>
    <rect x="0" y="360" width="580" height="40" fill="url(#accent)" opacity="0.15"/>
  </svg>