<svg xmlns="http://www.w3.org/2000/svg" viewBox="0 0 580 400" width="580" height="400">
  <defs>
    <linearGradient id="bg" x1="0%" y1="0%" x2="100%" y2="100%">
      <stop offset="0%" style="stop-color:#ffffff"/>
      <stop offset="100%" style="stop-color:#e8f0fe"/>
    </linearGradient>
    <linearGradient id="azure" x1="0%" y1="0%" x2="100%" y2="0%">
      <stop offset="0%" style="stop-color:#0ea5e9"/>
      <stop offset="100%" style="stop-color:#38bdf8"/>
    </linearGradient>
    <linearGradient id="amber" x1="0%" y1="0%" x2="100%" y2="100%">
      <stop offset="0%" style="stop-color:#f59e0b"/>
      <stop offset="100%" style="stop-color:#fcd34d"/>
    </linearGradient>
    <radialGradient id="globe" cx="35%" cy="35%" r="65%">
      <stop offset="0%" style="stop-color:#ffffff"/>
      <stop offset="65%" style="stop-color:#bae6fd"/>
      <stop offset="100%" style="stop-color:#0ea5e9;stop-opacity:0.5"/>
    </radialGradient>
    <linearGradient id="card" x1="0%" y1="0%" x2="0%" y2="100%">
      <stop offset="0%" style="stop-color:#ffffff"/>
      <stop offset="100%" style="stop-color:#f0f9ff"/>
    </linearGradient>
  </defs>
  <rect width="580" height="400" fill="url(#bg)"/>
  <rect x="0" y="0" width="580" height="4" fill="url(#azure)"/>
  <circle cx="100" cy="60" r="2.5" fill="#0ea5e9" opacity="0.22"/>
  <circle cx="480" cy="50" r="1.5" fill="#0ea5e9" opacity="0.28"/>
  <circle cx="540" cy="100" r="1.5" fill="#1B365D" opacity="0.18"/>
  <circle cx="60" cy="320" r="2" fill="#1B365D" opacity="0.15"/>
  <g transform="translate(290 200)">
    <circle r="115" fill="url(#globe)" stroke="#0ea5e9" stroke-width="1.5"/>
    <ellipse rx="115" ry="42" fill="none" stroke="#1B365D" stroke-width="0.6" opacity="0.35"/>
    <ellipse rx="115" ry="85" fill="none" stroke="#1B365D" stroke-width="0.6" opacity="0.25"/>
    <line x1="-115" y1="0" x2="115" y2="0" stroke="#1B365D" stroke-width="0.6" opacity="0.35"/>
    <line x1="0" y1="-115" x2="0" y2="115" stroke="#1B365D" stroke-width="0.6" opacity="0.3"/>
    <path d="M -90 -20 Q -70 -40 -50 -28 Q -38 -38 -20 -30 Q 0 -40 14 -22 Q 38 -10 26 6 Q 36 22 18 30 Q 10 42 -8 36 Q -28 46 -42 34 Q -64 36 -68 18 Q -82 8 -72 -8 Q -88 -8 -90 -20 Z" fill="#0ea5e9" opacity="0.45" stroke="#0ea5e9" stroke-width="0.5"/>
    <path d="M 30 -50 Q 50 -56 70 -44 Q 84 -30 68 -16 Q 78 0 60 4 Q 50 -8 36 -8 Q 28 -22 30 -50 Z" fill="#0ea5e9" opacity="0.45" stroke="#0ea5e9" stroke-width="0.5"/>
    <path d="M 50 30 Q 62 24 78 32 Q 84 50 70 56 Q 56 56 50 44 Q 44 36 50 30 Z" fill="#0ea5e9" opacity="0.45" stroke="#0ea5e9" stroke-width="0.5"/>
  </g>
  <g transform="translate(290 200)">
    <line x1="-70" y1="-50" x2="80" y2="30" stroke="#f59e0b" stroke-width="1.5" stroke-dasharray="3,3" opacity="0.85"/>
    <line x1="-70" y1="-50" x2="20" y2="60" stroke="#f59e0b" stroke-width="1.5" stroke-dasharray="3,3" opacity="0.7"/>
    <line x1="80" y1="30" x2="-30" y2="80" stroke="#f59e0b" stroke-width="1.5" stroke-dasharray="3,3" opacity="0.7"/>
  </g>
  <g transform="translate(220 150)">
    <rect x="-40" y="-25" width="80" height="50" rx="8" fill="url(#card)" stroke="#1B365D" stroke-width="1.5"/>
    <circle cy="-8" r="9" fill="#f59e0b"/>
    <path d="M -10 4 Q 0 -1 10 4 L 10 14 L -10 14 Z" fill="#f59e0b"/>
    <text x="-30" y="22" font-family="-apple-system,Segoe UI,Roboto,sans-serif" font-size="7" font-weight="700" fill="#1B365D" letter-spacing="1.5">İSTANBUL</text>
  </g>
  <g transform="translate(370 230)">
    <rect x="-40" y="-25" width="80" height="50" rx="8" fill="url(#card)" stroke="#1B365D" stroke-width="1.5"/>
    <circle cy="-8" r="9" fill="#0ea5e9"/>
    <path d="M -10 4 Q 0 -1 10 4 L 10 14 L -10 14 Z" fill="#0ea5e9"/>
    <text x="-26" y="22" font-family="-apple-system,Segoe UI,Roboto,sans-serif" font-size="7" font-weight="700" fill="#1B365D" letter-spacing="1.5">LONDON</text>
  </g>
  <g transform="translate(260 280)">
    <rect x="-40" y="-25" width="80" height="50" rx="8" fill="url(#card)" stroke="#1B365D" stroke-width="1.5"/>
    <circle cy="-8" r="9" fill="#f59e0b"/>
    <path d="M -10 4 Q 0 -1 10 4 L 10 14 L -10 14 Z" fill="#f59e0b"/>
    <text x="-26" y="22" font-family="-apple-system,Segoe UI,Roboto,sans-serif" font-size="7" font-weight="700" fill="#1B365D" letter-spacing="1.5">NEW YORK</text>
  </g>
  <text x="290" y="338" text-anchor="middle" font-family="-apple-system,Segoe UI,Roboto,sans-serif" font-size="13" font-weight="700" fill="#1B365D" letter-spacing="3">UZAKTAN ÇALIŞMA</text>
  <text x="290" y="360" text-anchor="middle" font-family="-apple-system,Segoe UI,Roboto,sans-serif" font-size="10" fill="#64748b" letter-spacing="2">GLOBAL TEAMS · ASYNC ENGLISH</text>
  <rect x="0" y="396" width="580" height="4" fill="url(#amber)"/>
</svg>
