<svg xmlns="http://www.w3.org/2000/svg" viewBox="0 0 580 400" width="580" height="400">
  <defs>
    <linearGradient id="bg" x1="0%" y1="0%" x2="100%" y2="100%">
      <stop offset="0%" style="stop-color:#ffffff"/>
      <stop offset="100%" style="stop-color:#e8f0fe"/>
    </linearGradient>
    <linearGradient id="azure" x1="0%" y1="0%" x2="100%" y2="0%">
      <stop offset="0%" style="stop-color:#0ea5e9"/>
      <stop offset="100%" style="stop-color:#38bdf8"/>
    </linearGradient>
    <linearGradient id="navy" x1="0%" y1="0%" x2="0%" y2="100%">
      <stop offset="0%" style="stop-color:#1B365D"/>
      <stop offset="100%" style="stop-color:#0f1e3a"/>
    </linearGradient>
    <linearGradient id="amber" x1="0%" y1="0%" x2="100%" y2="100%">
      <stop offset="0%" style="stop-color:#f59e0b"/>
      <stop offset="100%" style="stop-color:#fcd34d"/>
    </linearGradient>
    <radialGradient id="glow" cx="50%" cy="50%" r="50%">
      <stop offset="0%" style="stop-color:#0ea5e9;stop-opacity:0.18"/>
      <stop offset="100%" style="stop-color:#0ea5e9;stop-opacity:0"/>
    </radialGradient>
  </defs>
  <rect width="580" height="400" fill="url(#bg)"/>
  <rect x="0" y="0" width="580" height="4" fill="url(#azure)"/>
  <circle cx="100" cy="60" r="2.5" fill="#0ea5e9" opacity="0.2"/>
  <circle cx="480" cy="50" r="1.5" fill="#0ea5e9" opacity="0.25"/>
  <circle cx="540" cy="300" r="2" fill="#1B365D" opacity="0.12"/>
  <circle cx="50" cy="320" r="1.5" fill="#1B365D" opacity="0.15"/>
  <circle cx="150" cy="350" r="2" fill="#0ea5e9" opacity="0.18"/>
  <circle cx="290" cy="200" r="180" fill="url(#glow)"/>
  <circle cx="290" cy="200" r="135" fill="none" stroke="#0ea5e9" stroke-width="0.5" opacity="0.3" stroke-dasharray="6,6"/>
  <circle cx="290" cy="200" r="92" fill="none" stroke="#0ea5e9" stroke-width="0.5" opacity="0.22" stroke-dasharray="4,4"/>
  <g transform="translate(290 200)">
    <circle r="62" fill="#ffffff" stroke="url(#azure)" stroke-width="2.5"/>
    <circle r="62" fill="url(#navy)" opacity="0.04"/>
    <path d="M -28 -8 Q -14 -28 0 -8 Q 14 -28 28 -8" fill="none" stroke="#1B365D" stroke-width="2.5" stroke-linecap="round"/>
    <path d="M -32 6 Q -16 26 0 6 Q 16 26 32 6" fill="none" stroke="url(#azure)" stroke-width="2.2" stroke-linecap="round"/>
    <circle cx="-18" cy="-22" r="2.5" fill="#0ea5e9"/>
    <circle cx="18" cy="-22" r="2.5" fill="#0ea5e9"/>
    <rect x="-20" y="20" width="40" height="2.5" rx="1.25" fill="url(#amber)"/>
  </g>
  <g>
    <rect x="100" y="195" width="3" height="8" rx="1.5" fill="#38bdf8" opacity="0.8"/>
    <rect x="110" y="188" width="3" height="22" rx="1.5" fill="#38bdf8" opacity="0.9"/>
    <rect x="120" y="180" width="3" height="38" rx="1.5" fill="url(#azure)"/>
    <rect x="130" y="170" width="3" height="58" rx="1.5" fill="#0ea5e9"/>
    <rect x="140" y="180" width="3" height="38" rx="1.5" fill="url(#azure)"/>
    <rect x="150" y="188" width="3" height="22" rx="1.5" fill="#38bdf8" opacity="0.9"/>
    <rect x="160" y="195" width="3" height="8" rx="1.5" fill="#38bdf8" opacity="0.8"/>
  </g>
  <g>
    <rect x="416" y="195" width="3" height="8" rx="1.5" fill="#fcd34d" opacity="0.9"/>
    <rect x="426" y="186" width="3" height="26" rx="1.5" fill="#f59e0b"/>
    <rect x="436" y="178" width="3" height="42" rx="1.5" fill="url(#amber)"/>
    <rect x="446" y="170" width="3" height="58" rx="1.5" fill="#f59e0b"/>
    <rect x="456" y="180" width="3" height="38" rx="1.5" fill="url(#amber)"/>
    <rect x="466" y="188" width="3" height="22" rx="1.5" fill="#f59e0b"/>
    <rect x="476" y="195" width="3" height="8" rx="1.5" fill="#fcd34d" opacity="0.9"/>
  </g>
  <text x="290" y="328" text-anchor="middle" font-family="-apple-system,Segoe UI,Roboto,sans-serif" font-size="13" font-weight="700" fill="#1B365D" letter-spacing="3">AI ENGLISH COACH</text>
  <text x="290" y="350" text-anchor="middle" font-family="-apple-system,Segoe UI,Roboto,sans-serif" font-size="10" fill="#64748b" letter-spacing="2">SPHERE ENGLISH · GPT-4o + WHISPER AI</text>
  <rect x="0" y="396" width="580" height="4" fill="url(#amber)"/>
</svg>
