<svg xmlns="http://www.w3.org/2000/svg" viewBox="0 0 580 400" width="580" height="400">
    <defs>
      <linearGradient id="bg" x1="0%" y1="0%" x2="100%" y2="100%">
        <stop offset="0%" style="stop-color:#0a1628"/>
        <stop offset="100%" style="stop-color:#0d1f3c"/>
      </linearGradient>
      <linearGradient id="accent" x1="0%" y1="0%" x2="100%" y2="0%">
        <stop offset="0%" style="stop-color:#0891b2"/>
        <stop offset="100%" style="stop-color:#22d3ee"/>
      </linearGradient>
    </defs>
    <rect width="580" height="400" fill="url(#bg)"/>
    <circle cx="0" cy="0" r="120" fill="#0891b2" opacity="0.08"/><circle cx="580" cy="400" r="140" fill="#22d3ee" opacity="0.06"/><circle cx="54" cy="174" r="3" fill="#f0f9ff" opacity="0.29"/><circle cx="98" cy="338" r="1" fill="#f0f9ff" opacity="0.36"/><circle cx="142" cy="122" r="2" fill="#f0f9ff" opacity="0.43"/><circle cx="186" cy="286" r="3" fill="#f0f9ff" opacity="0.15"/><circle cx="230" cy="70" r="1" fill="#f0f9ff" opacity="0.22"/><circle cx="274" cy="234" r="2" fill="#f0f9ff" opacity="0.29"/><circle cx="318" cy="18" r="3" fill="#f0f9ff" opacity="0.36"/><circle cx="362" cy="182" r="1" fill="#f0f9ff" opacity="0.43"/><circle cx="406" cy="346" r="2" fill="#f0f9ff" opacity="0.15"/><circle cx="450" cy="130" r="3" fill="#f0f9ff" opacity="0.22"/><circle cx="494" cy="294" r="1" fill="#f0f9ff" opacity="0.29"/><circle cx="538" cy="78" r="2" fill="#f0f9ff" opacity="0.36"/><circle cx="582" cy="242" r="3" fill="#f0f9ff" opacity="0.43"/><circle cx="46" cy="26" r="1" fill="#f0f9ff" opacity="0.15"/><circle cx="90" cy="190" r="2" fill="#f0f9ff" opacity="0.22"/><circle cx="134" cy="354" r="3" fill="#f0f9ff" opacity="0.29"/><circle cx="178" cy="138" r="1" fill="#f0f9ff" opacity="0.36"/><circle cx="222" cy="302" r="2" fill="#f0f9ff" opacity="0.43"/><circle cx="266" cy="86" r="3" fill="#f0f9ff" opacity="0.15"/><circle cx="310" cy="250" r="1" fill="#f0f9ff" opacity="0.22"/>
    <rect x="0" y="0" width="580" height="4" fill="#0891b2" opacity="0.7"/>
    <circle cx="290" cy="210" r="90" fill="none" stroke="#22d3ee" stroke-width="4"/>
  <circle cx="290" cy="210" r="75" fill="none" stroke="#38bdf8" stroke-width="1" opacity="0.3"/>
  <line x1="290" y1="210" x2="290" y2="145" stroke="#f0f9ff" stroke-width="4"/>
  <line x1="290" y1="210" x2="350" y2="235" stroke="#22d3ee" stroke-width="3"/>
  <circle cx="290" cy="210" r="8" fill="#22d3ee"/>
  <rect x="270" y="315" width="40" height="12" rx="3" fill="#38bdf8" opacity="0.5"/>
    <rect x="0" y="360" width="580" height="40" fill="url(#accent)" opacity="0.15"/>
  </svg>